<?xml version="1.0" encoding="UTF-8"?>
<svg id="Layer_1" xmlns="http://www.w3.org/2000/svg" version="1.1" viewBox="0 0 841.89 595.28">
  <!-- Generator: Adobe Illustrator 30.4.0, SVG Export Plug-In . SVG Version: 2.1.4 Build 226)  -->
  <defs>
    <style>
      .st0, .st1 {
        fill: #eceaeb;
      }

      .st0, .st2, .st3 {
        fill-rule: evenodd;
      }

      .st4 {
        fill: none;
        stroke: #231f20;
        stroke-miterlimit: 2.61;
        stroke-width: .22px;
      }

      .st1 {
        font-family: Montserrat-Bold, Montserrat;
        font-size: 52.61px;
        font-weight: 700;
      }

      .st2 {
        fill: #d2ad66;
      }

      .st3 {
        fill: #9c1c20;
      }
    </style>
  </defs>
  <rect class="st4" width="841.89" height="595.28"/>
  <path class="st2" d="M463.89,80.28c19.54,0,35.39,15.84,35.39,35.39s-15.84,35.39-35.39,35.39-35.39-15.84-35.39-35.39,15.84-35.39,35.39-35.39"/>
  <path class="st0" d="M496.31,176.94c-14.93,47.57-29.86,95.14-44.78,142.71-.41,1.29-.19,2.58.6,3.67.8,1.09,1.96,1.69,3.31,1.7,11.74.09,23.49.18,35.23.27.16,0,.3.1.37.25.06.15.03.32-.09.43-12.46,12.59-24.92,25.17-37.38,37.76-.57.58-1.27.87-2.09.87-17.57,0-35.25-.13-52.82-.13-22.48-1.11-28.74-17.11-21.82-39.08,10.74-35.46,21.47-70.91,32.21-106.37.09-.29.04-.58-.14-.83-.18-.25-.44-.38-.75-.38h-20.39c-.2,0-.38-.1-.47-.28-.1-.18-.09-.38.03-.55,8.51-12.71,16.09-26.56,22.04-42.4.38-1.01,1.31-1.65,2.39-1.64,27.34.17,54.69.35,82.03.52.87,0,1.62.39,2.14,1.1.52.71.65,1.54.39,2.37"/>
  <path class="st0" d="M85.74,362.51c12.49-65.7,54.45-108.72,118.4-134.81-13.69,45.26-27.37,90.51-41.06,135.77-.26.86-1.02,1.42-1.92,1.42h-73.46c-.62,0-1.15-.25-1.54-.73-.39-.48-.54-1.04-.42-1.65"/>
  <path class="st2" d="M137.9,198.93c14.47-7.25,87.74-37.18,87.74-37.18-7.17,21.98-14.35,43.97-21.52,65.95-10.31,4.14-20.38,8.89-30.11,14.49-12.23-13.37-24.46-26.75-36.69-40.12-.44-.48-.61-1.08-.49-1.71.12-.64.49-1.14,1.07-1.43"/>
  <path class="st3" d="M112.5,136.34c4.95-18.49,9.91-36.98,14.86-55.47.24-.89,1.02-1.48,1.93-1.48h147.35c123.77-2.17,126.67,130.42,23.08,168.23-.58.21-.99.63-1.2,1.21-.21.58-.15,1.16.16,1.69,21.84,36.95,44.05,73.88,65.9,110.82.38.63.38,1.37.02,2.01-.36.64-1,1.01-1.73,1.01-28.44.12-56.88.23-85.32.35-1.36-.15-2.34-.87-3.01-2.07-23.5-44.96-47-89.93-70.51-134.89,57.28-15.91,71.69-20.47,83.25-49.9,5.83-14.84-1.79-36.11-29.86-37.69-21.65-1.22-40.88-1.89-70.82-1.03-24.06-.09-48.11-.18-72.17-.27-.64,0-1.19-.28-1.58-.79-.39-.51-.51-1.11-.34-1.73"/>
  <path class="st2" d="M522.47,172.95h84.38c.71,0,1.31.33,1.69.93,9.24,14.56,18.48,29.12,27.71,43.68.33.53.84.84,1.46.92.62.07,1.18-.12,1.63-.56,15.15-14.81,30.29-29.62,45.44-44.44.39-.38.86-.57,1.4-.57,22.91.01,45.82.02,68.73.03.83,0,1.54.48,1.86,1.25.31.77.13,1.61-.47,2.19-30.25,29.15-60.49,58.3-90.74,87.45-.69.67-.82,1.71-.3,2.52,20.3,31.74,40.6,63.49,60.91,95.23.4.63.43,1.38.07,2.04-.36.66-1.01,1.04-1.76,1.04h-77.59c-.7,0-1.3-.33-1.68-.91-10.28-15.89-20.57-31.78-30.85-47.68-.33-.52-.83-.83-1.44-.9-.61-.07-1.17.11-1.61.53-17,16.12-34.01,32.24-51.01,48.35-.39.37-.84.55-1.38.55-25.63,0-51.25.01-76.88.02-.83,0-1.54-.47-1.85-1.24-.31-.77-.14-1.6.45-2.19,32.26-31.85,64.52-63.69,96.78-95.54.68-.68.8-1.71.27-2.52-18.96-29.04-37.93-58.08-56.89-87.12-.41-.63-.44-1.38-.08-2.05.36-.66,1.01-1.05,1.76-1.05"/>
  <path class="st0" d="M665.02,264.8l-52.68,50.4c.19-.03.39-.04.59-.01.61.07,1.11.38,1.44.9,10.28,15.89,20.57,31.78,30.85,47.68.38.59.98.91,1.68.91h77.59c.75,0,1.4-.38,1.76-1.04.36-.66.33-1.41-.07-2.04-20.3-31.74-40.6-63.49-60.91-95.23-.31-.48-.39-1.05-.26-1.57"/>
  <text class="st1" transform="translate(80.69 437.01)"><tspan x="0" y="0">P</tspan></text>
  <text class="st1" transform="translate(177.02 437.01)"><tspan x="0" y="0">R</tspan></text>
  <text class="st1" transform="translate(274.04 437.01)"><tspan x="0" y="0">I</tspan></text>
  <text class="st1" transform="translate(349.65 437.01)"><tspan x="0" y="0">N</tspan></text>
  <text class="st1" transform="translate(450.5 437.01)"><tspan x="0" y="0">T</tspan></text>
  <text class="st1" transform="translate(541.37 437.01)"><tspan x="0" y="0">I</tspan></text>
  <text class="st1" transform="translate(616.97 437.01)"><tspan x="0" y="0">N</tspan></text>
  <text class="st1" transform="translate(717.83 437.01)"><tspan x="0" y="0">G</tspan></text>
</svg>